<svg width="14" height="14" viewBox="0 0 14 14" fill="none" xmlns="http://www.w3.org/2000/svg">
<path d="M7.00016 13.6667C3.31816 13.6667 0.333496 10.682 0.333496 6.99999C0.333496 3.31799 3.31816 0.333328 7.00016 0.333328C10.6822 0.333328 13.6668 3.31799 13.6668 6.99999C13.6668 10.682 10.6822 13.6667 7.00016 13.6667ZM7.00016 12.3333C8.41465 12.3333 9.7712 11.7714 10.7714 10.7712C11.7716 9.77104 12.3335 8.41448 12.3335 6.99999C12.3335 5.58551 11.7716 4.22895 10.7714 3.22876C9.7712 2.22856 8.41465 1.66666 7.00016 1.66666C5.58567 1.66666 4.22912 2.22856 3.22893 3.22876C2.22873 4.22895 1.66683 5.58551 1.66683 6.99999C1.66683 8.41448 2.22873 9.77104 3.22893 10.7712C4.22912 11.7714 5.58567 12.3333 7.00016 12.3333ZM6.3335 8.99999H7.66683V10.3333H6.3335V8.99999ZM7.66683 7.90333V8.33333H6.3335V7.33333C6.3335 7.15652 6.40373 6.98695 6.52876 6.86192C6.65378 6.7369 6.82335 6.66666 7.00016 6.66666C7.18955 6.66665 7.37504 6.61286 7.53505 6.51155C7.69506 6.41024 7.82301 6.26557 7.90401 6.09438C7.98501 5.9232 8.01574 5.73252 7.99262 5.54456C7.96949 5.35659 7.89347 5.17905 7.77338 5.0326C7.6533 4.88615 7.4941 4.77681 7.31431 4.71731C7.13452 4.6578 6.94152 4.65057 6.75778 4.69647C6.57404 4.74236 6.40711 4.83948 6.27641 4.97654C6.14571 5.1136 6.05662 5.28495 6.0195 5.47066L4.7115 5.20866C4.79258 4.80338 4.97984 4.42691 5.25411 4.11772C5.52838 3.80853 5.87984 3.57772 6.27256 3.44887C6.66527 3.32003 7.08515 3.29779 7.48928 3.3844C7.89341 3.47102 8.2673 3.6634 8.57271 3.94188C8.87812 4.22035 9.10411 4.57493 9.22757 4.96937C9.35103 5.36381 9.36754 5.78396 9.2754 6.18687C9.18327 6.58978 8.9858 6.96099 8.70318 7.26257C8.42055 7.56415 8.06292 7.78527 7.66683 7.90333Z" fill="#96A6C7"/>
</svg>
