<svg width="12" height="15" viewBox="0 0 12 15" fill="none" xmlns="http://www.w3.org/2000/svg">
<path d="M9.82508 5H8.50008V0.833333C8.50008 0.375 8.12508 0 7.66675 0H4.33341C3.87508 0 3.50008 0.375 3.50008 0.833333V5H2.17508C1.43341 5 1.05841 5.9 1.58341 6.425L5.40841 10.25C5.73341 10.575 6.25841 10.575 6.58341 10.25L10.4084 6.425C10.9334 5.9 10.5667 5 9.82508 5ZM0.166748 13.3333C0.166748 13.7917 0.541748 14.1667 1.00008 14.1667H11.0001C11.4584 14.1667 11.8334 13.7917 11.8334 13.3333C11.8334 12.875 11.4584 12.5 11.0001 12.5H1.00008C0.541748 12.5 0.166748 12.875 0.166748 13.3333Z" fill="#2561D3"/>
</svg>
