<svg width="20" height="20" viewBox="0 0 20 20" fill="none" xmlns="http://www.w3.org/2000/svg">
<path d="M14.5833 10.9154H10.9166V14.582H9.08325V10.9154H5.41659V9.08203H9.08325V5.41536H10.9166V9.08203H14.5833M9.99992 0.832031C8.79613 0.832031 7.60414 1.06913 6.49199 1.5298C5.37984 1.99047 4.36931 2.66568 3.51811 3.51689C1.79902 5.23597 0.833252 7.56755 0.833252 9.9987C0.833252 12.4298 1.79902 14.7614 3.51811 16.4805C4.36931 17.3317 5.37984 18.0069 6.49199 18.4676C7.60414 18.9283 8.79613 19.1654 9.99992 19.1654C12.4311 19.1654 14.7626 18.1996 16.4817 16.4805C18.2008 14.7614 19.1666 12.4298 19.1666 9.9987C19.1666 8.79491 18.9295 7.60292 18.4688 6.49077C18.0081 5.37861 17.3329 4.36809 16.4817 3.51689C15.6305 2.66568 14.62 1.99047 13.5079 1.5298C12.3957 1.06913 11.2037 0.832031 9.99992 0.832031Z" fill="#333333"/>
</svg>
