<svg width="15" height="16" viewBox="0 0 15 16" fill="none" xmlns="http://www.w3.org/2000/svg">
<path d="M7.4625 12.5C7.725 12.5 7.94688 12.4094 8.12813 12.2281C8.30938 12.0469 8.4 11.825 8.4 11.5625C8.4 11.3 8.30938 11.0781 8.12813 10.8969C7.94688 10.7156 7.725 10.625 7.4625 10.625C7.2 10.625 6.97813 10.7156 6.79688 10.8969C6.61562 11.0781 6.525 11.3 6.525 11.5625C6.525 11.825 6.61562 12.0469 6.79688 12.2281C6.97813 12.4094 7.2 12.5 7.4625 12.5ZM6.7875 9.6125H8.175C8.175 9.2 8.22188 8.875 8.31563 8.6375C8.40938 8.4 8.675 8.075 9.1125 7.6625C9.4375 7.3375 9.69375 7.02812 9.88125 6.73438C10.0688 6.44063 10.1625 6.0875 10.1625 5.675C10.1625 4.975 9.90625 4.4375 9.39375 4.0625C8.88125 3.6875 8.275 3.5 7.575 3.5C6.8625 3.5 6.28437 3.6875 5.84062 4.0625C5.39687 4.4375 5.0875 4.8875 4.9125 5.4125L6.15 5.9C6.2125 5.675 6.35312 5.43125 6.57187 5.16875C6.79063 4.90625 7.125 4.775 7.575 4.775C7.975 4.775 8.275 4.88438 8.475 5.10313C8.675 5.32188 8.775 5.5625 8.775 5.825C8.775 6.075 8.7 6.30938 8.55 6.52813C8.4 6.74688 8.2125 6.95 7.9875 7.1375C7.4375 7.625 7.1 7.99375 6.975 8.24375C6.85 8.49375 6.7875 8.95 6.7875 9.6125ZM7.5 15.5C6.4625 15.5 5.4875 15.3031 4.575 14.9094C3.6625 14.5156 2.86875 13.9813 2.19375 13.3063C1.51875 12.6313 0.984375 11.8375 0.590625 10.925C0.196875 10.0125 0 9.0375 0 8C0 6.9625 0.196875 5.9875 0.590625 5.075C0.984375 4.1625 1.51875 3.36875 2.19375 2.69375C2.86875 2.01875 3.6625 1.48438 4.575 1.09063C5.4875 0.696875 6.4625 0.5 7.5 0.5C8.5375 0.5 9.5125 0.696875 10.425 1.09063C11.3375 1.48438 12.1313 2.01875 12.8063 2.69375C13.4813 3.36875 14.0156 4.1625 14.4094 5.075C14.8031 5.9875 15 6.9625 15 8C15 9.0375 14.8031 10.0125 14.4094 10.925C14.0156 11.8375 13.4813 12.6313 12.8063 13.3063C12.1313 13.9813 11.3375 14.5156 10.425 14.9094C9.5125 15.3031 8.5375 15.5 7.5 15.5Z" fill="#9ECFD6"/>
</svg>
