<svg width="14" height="17" viewBox="0 0 14 17" fill="none" xmlns="http://www.w3.org/2000/svg">
<path d="M9.3025 0.757812H4.8025V2.25781H9.3025V0.757812V0.757812ZM6.3025 10.5078H7.8025V6.00781H6.3025V10.5078ZM12.325 5.54281L13.39 4.47781C13.0675 4.09531 12.715 3.73531 12.3325 3.42031L11.2675 4.48531C10.105 3.55531 8.6425 3.00031 7.0525 3.00031C3.325 3.00031 0.302498 6.02281 0.302498 9.75031C0.302498 13.4778 3.3175 16.5003 7.0525 16.5003C10.7875 16.5003 13.8025 13.4778 13.8025 9.75031C13.8025 8.16781 13.2475 6.70531 12.325 5.54281ZM7.0525 15.0078C4.15 15.0078 1.8025 12.6603 1.8025 9.75781C1.8025 6.85531 4.15 4.50781 7.0525 4.50781C9.955 4.50781 12.3025 6.85531 12.3025 9.75781C12.3025 12.6603 9.955 15.0078 7.0525 15.0078Z" fill="#ACB0B6"/>
</svg>
