<svg width="18" height="18" viewBox="0 0 18 18" fill="none" xmlns="http://www.w3.org/2000/svg">
<path d="M15.6667 4.00033H12.3334V2.33366C12.3334 1.41699 11.5834 0.666992 10.6667 0.666992H7.33335C6.41669 0.666992 5.66669 1.41699 5.66669 2.33366V4.00033H2.33335C1.41669 4.00033 0.666687 4.75033 0.666687 5.66699V15.667C0.666687 16.5837 1.41669 17.3337 2.33335 17.3337H15.6667C16.5834 17.3337 17.3334 16.5837 17.3334 15.667V5.66699C17.3334 4.75033 16.5834 4.00033 15.6667 4.00033ZM7.33335 2.33366H10.6667V4.00033H7.33335V2.33366ZM11.5 11.5003H9.83335V13.167C9.83335 13.6253 9.45835 14.0003 9.00002 14.0003C8.54169 14.0003 8.16669 13.6253 8.16669 13.167V11.5003H6.50002C6.04169 11.5003 5.66669 11.1253 5.66669 10.667C5.66669 10.2087 6.04169 9.83366 6.50002 9.83366H8.16669V8.16699C8.16669 7.70866 8.54169 7.33366 9.00002 7.33366C9.45835 7.33366 9.83335 7.70866 9.83335 8.16699V9.83366H11.5C11.9584 9.83366 12.3334 10.2087 12.3334 10.667C12.3334 11.1253 11.9584 11.5003 11.5 11.5003Z" fill="#96A6C7"/>
</svg>
