<svg width="18" height="18" viewBox="0 0 18 18" fill="none" xmlns="http://www.w3.org/2000/svg">
<path d="M17.5673 5.08271C17.5092 5.14082 17.4403 5.18692 17.3644 5.21838C17.2886 5.24983 17.2072 5.26602 17.1251 5.26602C17.043 5.26602 16.9616 5.24983 16.8858 5.21838C16.8099 5.18692 16.741 5.14082 16.6829 5.08271L15.2501 3.64912L13.0079 5.89521L15.6915 8.57881C15.8088 8.69608 15.8747 8.85514 15.8747 9.02099C15.8747 9.18685 15.8088 9.34591 15.6915 9.46318C15.5742 9.58046 15.4152 9.64634 15.2493 9.64634C15.0835 9.64634 14.9244 9.58046 14.8071 9.46318L14.3126 8.96318L7.7501 15.5257C7.63397 15.6427 7.49584 15.7356 7.34365 15.799C7.19147 15.8624 7.02825 15.8951 6.86338 15.8952H3.00479L1.3126 17.5874C1.25182 17.6483 1.17915 17.6959 1.09911 17.7274C1.01907 17.7589 0.933403 17.7735 0.847458 17.7703C0.761513 17.7672 0.677144 17.7463 0.59963 17.7091C0.522116 17.6718 0.453124 17.6189 0.396973 17.5538C0.294724 17.4296 0.242872 17.2715 0.251699 17.1109C0.260527 16.9503 0.329387 16.7989 0.444629 16.6866L2.12041 15.0101V11.1515C2.12118 10.8208 2.25293 10.5039 2.48682 10.2702L3.67275 9.08428C3.70178 9.05522 3.73624 9.03217 3.77418 9.01644C3.81212 9.00072 3.85278 8.99262 3.89385 8.99262C3.93492 8.99262 3.97558 9.00072 4.01352 9.01644C4.05145 9.03217 4.08592 9.05522 4.11494 9.08428L6.36729 11.3351C6.42535 11.3931 6.49429 11.4392 6.57016 11.4706C6.64603 11.502 6.72735 11.5182 6.80947 11.5182C6.89159 11.5182 6.97291 11.502 7.04878 11.4706C7.12465 11.4392 7.19359 11.3931 7.25166 11.3351C7.30973 11.277 7.35579 11.2081 7.38722 11.1322C7.41865 11.0563 7.43482 10.975 7.43482 10.8929C7.43482 10.8107 7.41865 10.7294 7.38722 10.6536C7.35579 10.5777 7.30973 10.5088 7.25166 10.4507L4.99854 8.19756C4.96948 8.16853 4.94643 8.13407 4.9307 8.09613C4.91498 8.0582 4.90688 8.01753 4.90688 7.97646C4.90688 7.9354 4.91498 7.89473 4.9307 7.85679C4.94643 7.81886 4.96948 7.78439 4.99854 7.75537L5.85791 6.89599C5.88693 6.86694 5.9214 6.84389 5.95934 6.82816C5.99727 6.81244 6.03794 6.80434 6.079 6.80434C6.12007 6.80434 6.16074 6.81244 6.19867 6.82816C6.23661 6.84389 6.27108 6.86694 6.3001 6.89599L8.55322 9.14912C8.61129 9.20719 8.68023 9.25325 8.7561 9.28468C8.83197 9.3161 8.91329 9.33228 8.99541 9.33228C9.07753 9.33228 9.15885 9.3161 9.23472 9.28468C9.31059 9.25325 9.37953 9.20719 9.4376 9.14912C9.49567 9.09105 9.54173 9.02211 9.57316 8.94624C9.60458 8.87037 9.62076 8.78905 9.62076 8.70693C9.62076 8.62481 9.60458 8.54349 9.57316 8.46762C9.54173 8.39175 9.49567 8.32281 9.4376 8.26474L7.18682 6.00928C7.15776 5.98025 7.13471 5.94579 7.11899 5.90785C7.10326 5.86991 7.09516 5.82925 7.09516 5.78818C7.09516 5.74711 7.10326 5.70645 7.11899 5.66851C7.13471 5.63058 7.15776 5.59611 7.18682 5.56709L9.05166 3.70303L8.55557 3.20693C8.49634 3.14773 8.44962 3.07723 8.41817 2.99961C8.38673 2.922 8.3712 2.83886 8.37251 2.75513C8.37382 2.67139 8.39195 2.58878 8.42581 2.51219C8.45967 2.4356 8.50858 2.3666 8.56963 2.30928C8.69325 2.19903 8.85468 2.14081 9.02021 2.14678C9.18574 2.15275 9.34256 2.22244 9.45791 2.34131L12.1251 5.00693L14.3665 2.76474L12.9321 1.33115C12.8729 1.272 12.8261 1.20154 12.7946 1.12395C12.763 1.04637 12.7474 0.963242 12.7487 0.879511C12.7499 0.795779 12.768 0.713151 12.8018 0.636533C12.8356 0.559914 12.8844 0.490868 12.9454 0.433495C13.0692 0.323199 13.2307 0.264957 13.3964 0.270925C13.562 0.276893 13.719 0.346611 13.8345 0.465526L17.5673 4.19834C17.6254 4.25638 17.6715 4.32531 17.7029 4.40119C17.7344 4.47706 17.7506 4.55839 17.7506 4.64053C17.7506 4.72266 17.7344 4.80399 17.7029 4.87986C17.6715 4.95574 17.6254 5.02467 17.5673 5.08271Z" fill="#B1DAFF"/>
</svg>
