<svg width="82" height="32" viewBox="0 0 82 32" fill="none" xmlns="http://www.w3.org/2000/svg">
<path d="M16.2414 4.77551V5.32856C16.2414 5.72563 16.5632 6.04752 16.9603 6.04752C17.3574 6.04752 17.6793 6.36942 17.6793 6.76649V7.48546C17.6793 7.97416 17.2831 8.37034 16.7944 8.37034H15.7989C15.3102 8.37034 14.9141 8.76651 14.9141 9.25522V20.5375C14.9141 21.0262 15.3102 21.4223 15.7989 21.4223H23.0991C23.5878 21.4223 23.9839 21.0262 23.9839 20.5375V9.25522C23.9839 8.76651 23.5878 8.37034 23.0991 8.37034H22.3248C21.8361 8.37034 21.4399 7.97416 21.4399 7.48546V6.73884C21.4399 6.35704 21.7495 6.04752 22.1312 6.04752C22.513 6.04752 22.8225 5.73801 22.8225 5.35621V4.77551C22.8225 4.2868 22.4264 3.89062 21.9377 3.89062H17.1262C16.6375 3.89062 16.2414 4.2868 16.2414 4.77551Z" fill="#333333"/>
<path fill-rule="evenodd" clip-rule="evenodd" d="M18.298 5.21795C18.732 5.59317 19.0066 6.14776 19.0066 6.76649V7.48546C19.0066 8.70722 18.0161 9.69766 16.7944 9.69766H16.2414V20.095H22.6566V9.69766H22.3248C21.1031 9.69766 20.1126 8.70722 20.1126 7.48546V6.73884C20.1126 6.13216 20.3803 5.58799 20.8039 5.21795H18.298ZM16.2414 5.32856V4.77551C16.2414 4.2868 16.6375 3.89062 17.1262 3.89062H21.9377C22.4264 3.89062 22.8225 4.2868 22.8225 4.77551V5.35621C22.8225 5.73801 22.513 6.04752 22.1312 6.04752C21.7495 6.04752 21.4399 6.35704 21.4399 6.73884V7.48546C21.4399 7.97416 21.8361 8.37034 22.3248 8.37034H23.0991C23.5878 8.37034 23.9839 8.76651 23.9839 9.25522V20.5375C23.9839 21.0262 23.5878 21.4223 23.0991 21.4223H15.7989C15.3102 21.4223 14.9141 21.0262 14.9141 20.5375V9.25522C14.9141 8.76651 15.3102 8.37034 15.7989 8.37034H16.7944C17.2831 8.37034 17.6793 7.97416 17.6793 7.48546V6.76649C17.6793 6.36942 17.3574 6.04752 16.9603 6.04752C16.5632 6.04752 16.2414 5.72563 16.2414 5.32856Z" fill="#333333"/>
<path d="M39.1846 6.4175V21.3831H35.7836L30.3596 13.5203H30.2716V21.3831H26.1963V6.4175H29.6559L34.992 14.2511H35.1092V6.4175H39.1846Z" fill="#828282"/>
<path d="M44.1849 6.4175L47.2634 16.9694H47.3807L50.4592 6.4175H55.0623L50.1074 21.3831H44.5368L39.5819 6.4175H44.1849Z" fill="#828282"/>
<path d="M56.9163 21.3831H52.5185L57.4734 6.4175H63.044L67.9989 21.3831H63.601L60.3173 10.5389H60.2L56.9163 21.3831ZM56.0954 15.4787H64.3633V18.5186H56.0954V15.4787Z" fill="#828282"/>
<path d="M81.7216 12.0296H77.5876C77.5583 11.6886 77.4801 11.3792 77.3531 11.1016C77.2309 10.8239 77.0599 10.5852 76.84 10.3854C76.625 10.1808 76.3636 10.0249 76.0557 9.91775C75.7479 9.80571 75.3985 9.74968 75.0076 9.74968C74.3235 9.74968 73.7444 9.91532 73.2704 10.2466C72.8013 10.5779 72.4446 11.0528 72.2003 11.6715C71.9608 12.2902 71.8411 13.0332 71.8411 13.9003C71.8411 14.8162 71.9633 15.5834 72.2076 16.2021C72.4568 16.816 72.816 17.2788 73.2851 17.5905C73.7542 17.8975 74.3186 18.0509 74.9782 18.0509C75.3545 18.0509 75.6917 18.0046 75.9898 17.9121C76.2878 17.8146 76.5468 17.6758 76.7667 17.4956C76.9866 17.3153 77.165 17.0985 77.3018 16.8452C77.4435 16.587 77.5388 16.2971 77.5876 15.9756L81.7216 16.0048C81.6727 16.6381 81.4944 17.2836 81.1865 17.9413C80.8787 18.5941 80.4413 19.1982 79.8745 19.7535C79.3126 20.304 78.6162 20.7474 77.7855 21.0835C76.9548 21.4196 75.9897 21.5877 74.8903 21.5877C73.5123 21.5877 72.276 21.293 71.1814 20.7035C70.0918 20.114 69.2293 19.2469 68.594 18.1021C67.9637 16.9572 67.6485 15.5566 67.6485 13.9003C67.6485 12.2342 67.971 10.8312 68.616 9.69122C69.2611 8.54639 70.1308 7.68168 71.2254 7.09709C72.32 6.50762 73.5416 6.21289 74.8903 6.21289C75.8383 6.21289 76.7105 6.34199 77.507 6.60018C78.3035 6.85838 79.0023 7.23593 79.6033 7.73283C80.2043 8.22487 80.6881 8.83138 81.0546 9.55238C81.4211 10.2734 81.6434 11.0991 81.7216 12.0296Z" fill="#828282"/>
<path d="M19.5333 12.6288C19.0524 13.1629 16.4155 16.9683 19.4452 17.0518C22.6334 17.1396 19.9977 13.0961 19.5333 12.6288Z" fill="#E0E0E0"/>
<path fill-rule="evenodd" clip-rule="evenodd" d="M19.5271 12.3877L19.6507 12.5121C19.7818 12.644 20.042 12.9989 20.3062 13.4451C20.5725 13.8948 20.853 14.4541 21.0175 15.0009C21.1796 15.5395 21.2414 16.1059 21.0162 16.5401C20.7805 16.9947 20.2684 17.2407 19.4403 17.2179C18.6492 17.1961 18.1698 16.9269 17.9618 16.4695C17.7634 16.0332 17.8415 15.4811 18.0149 14.9574C18.1909 14.426 18.4781 13.8854 18.7491 13.4466C19.0196 13.0086 19.2805 12.6616 19.4097 12.518L19.5271 12.3877ZM19.5352 12.8872C19.4063 13.0529 19.2229 13.3109 19.0315 13.6209C18.7674 14.0484 18.4946 14.5645 18.3299 15.0617C18.1627 15.5666 18.1196 16.0148 18.2639 16.3322C18.3986 16.6285 18.7257 16.8663 19.4494 16.8862C20.2155 16.9073 20.5695 16.6808 20.7217 16.3873C20.8844 16.0735 20.8562 15.6163 20.6998 15.0965C20.5459 14.585 20.2796 14.0514 20.0207 13.6142C19.835 13.3005 19.6582 13.0451 19.5352 12.8872Z" fill="#E0E0E0"/>
<path d="M10.3334 5.40494C10.0362 5.63688 9.7475 5.88536 9.46855 6.15042C9.12802 6.47399 8.81142 6.81328 8.5188 7.16609C7.12883 8.84196 6.27999 10.8228 5.97834 12.8715C5.84134 13.8019 5.81721 14.7464 5.90652 15.6826C6.10316 17.744 6.84974 19.7656 8.15232 21.5102C8.42654 21.8775 8.7254 22.2325 9.04895 22.5731C9.37251 22.9136 9.7118 23.2302 10.0646 23.5228C11.7656 24.9337 13.7807 25.787 15.862 26.0765C16.6784 26.1901 17.505 26.2169 18.3267 26.1566C18.461 26.1468 18.5753 26.2555 18.569 26.39L18.4534 28.8485C18.4477 28.9692 18.54 29.0721 18.6606 29.0797L19.6344 29.1407C19.7487 29.1478 19.8386 29.241 19.8417 29.3555L19.8831 30.8874C19.8865 31.0133 19.7843 31.1167 19.6583 31.1146L14.3675 31.0271C14.2491 31.0251 14.1532 30.9303 14.15 30.8119L14.1083 29.2714C14.1051 29.1525 14.1964 29.0524 14.3151 29.0447L15.6076 28.9604C15.7224 28.9529 15.8123 28.8586 15.8144 28.7436L15.862 26.0765C13.7807 25.787 11.7656 24.9337 10.0646 23.5228L8.09994 25.3896C8.01137 25.4738 8.00779 25.6138 8.09195 25.7024L8.69301 26.335C8.77717 26.4236 8.77359 26.5636 8.68502 26.6477L7.57578 27.7017C7.48721 27.7859 7.34719 27.7823 7.26303 27.6937L3.84387 24.0952C3.75972 24.0066 3.76329 23.8666 3.85186 23.7825L4.9611 22.7285C5.04967 22.6443 5.18969 22.6479 5.27385 22.7365L5.87491 23.3691C5.95907 23.4576 6.09909 23.4612 6.18766 23.377L8.15232 21.5102C6.84974 19.7656 6.10316 17.744 5.90652 15.6826L3.14467 15.6017C3.02223 15.5981 2.92018 15.6947 2.91705 15.8171L2.89421 16.711C2.89103 16.8354 2.78598 16.9326 2.66175 16.9263L1.09503 16.846C0.973629 16.8398 0.87999 16.7368 0.885345 16.6153L1.11163 11.4828C1.11705 11.36 1.22152 11.2652 1.34426 11.2716L2.82319 11.3494C2.93992 11.3556 3.03173 11.4515 3.03277 11.5684L3.04235 12.641C3.04343 12.7621 3.14159 12.8598 3.26264 12.8603L5.97834 12.8715C6.27999 10.8228 7.12883 8.84196 8.5188 7.16609L6.70236 5.25436C6.61821 5.16579 6.47819 5.16221 6.38962 5.24637L5.70407 5.89776C5.6155 5.98192 5.47548 5.97834 5.39133 5.88977L4.28703 4.72755C4.20288 4.63898 4.20645 4.49896 4.29502 4.4148L7.94645 0.94525C8.03502 0.861093 8.17504 0.864671 8.25919 0.953241L9.36349 2.11547C9.44764 2.20404 9.44407 2.34406 9.3555 2.42822L8.72291 3.02929C8.63435 3.11345 8.63077 3.25347 8.71492 3.34204L10.3598 5.07317C10.4511 5.16926 10.4378 5.32338 10.3334 5.40494Z" fill="#333333"/>
<path fill-rule="evenodd" clip-rule="evenodd" d="M7.33669 0.30425C7.77954 -0.116536 8.47964 -0.0986471 8.90042 0.344204L10.0047 1.50643C10.4255 1.94928 10.4076 2.6494 9.96476 3.07018L9.81328 3.21412L11.001 4.46413C11.461 4.94832 11.3839 5.70777 10.8775 6.10299C10.6029 6.31733 10.336 6.5471 10.0778 6.79239C9.76269 7.09181 9.46998 7.40553 9.19964 7.73148C7.91627 9.27883 7.13227 11.1077 6.85353 13.0008C6.72691 13.8608 6.7046 14.7337 6.78714 15.599C6.96885 17.504 7.65843 19.3705 8.86111 20.9813C9.11446 21.3207 9.39076 21.6489 9.69018 21.964C9.9896 22.2792 10.3033 22.5719 10.6293 22.8422C12.1998 24.1448 14.0603 24.933 15.9837 25.2006C16.7382 25.3055 17.5022 25.3303 18.2617 25.2746C18.9122 25.2269 19.4845 25.7542 19.4526 26.432L19.3677 28.2379L19.6895 28.258C20.2609 28.2938 20.7105 28.7597 20.726 29.332L20.7674 30.864C20.7844 31.4936 20.2731 32.0103 19.6435 31.9998L14.3526 31.9123C13.7605 31.9026 13.2812 31.4282 13.2652 30.8363L13.2235 29.2958C13.2075 28.7015 13.664 28.2008 14.2572 28.1621L14.9403 28.1176L14.9635 26.8205C13.2483 26.471 11.5933 25.7594 10.1224 24.6888L9.19031 25.5745L9.33424 25.7259C9.75502 26.1688 9.73713 26.8689 9.29428 27.2897L8.18504 28.3437C7.7422 28.7645 7.0421 28.7466 6.62132 28.3037L3.20216 24.7052C2.78138 24.2624 2.79927 23.5622 3.24211 23.1415L4.35135 22.0875C4.7942 21.6667 5.4943 21.6846 5.91508 22.1274L6.05901 22.2789L6.99113 21.3932C6.0154 19.8977 5.39417 18.2427 5.1243 16.5454L3.78437 16.5062L3.77854 16.7341C3.76266 17.3559 3.2374 17.8423 2.61624 17.8105L1.04952 17.7302C0.442508 17.6991 -0.0256792 17.1841 0.00109325 16.5768L0.227379 11.4443C0.254449 10.8303 0.776804 10.3562 1.3905 10.3885L2.86944 10.4663C3.4531 10.497 3.91214 10.9765 3.91736 11.561L3.92109 11.9786L5.23839 11.984C5.59368 10.298 6.29955 8.67212 7.35313 7.22465L6.51778 6.34547L6.31334 6.53973C5.87049 6.96052 5.17039 6.94263 4.74961 6.49977L3.64532 5.33755C3.22454 4.8947 3.24242 4.19458 3.68527 3.7738L7.33669 0.30425ZM8.50084 5.86328C8.61732 5.74347 8.73664 5.62549 8.85879 5.50942C8.98094 5.39336 9.10486 5.28022 9.23046 5.17L8.0732 3.95204C7.65243 3.50919 7.67031 2.80907 8.11316 2.38829L8.26464 2.24436L8.07461 2.04436L5.38539 4.59962L5.57542 4.79962L5.77986 4.60537C6.22271 4.18458 6.92281 4.20247 7.34359 4.64532L8.50084 5.86328ZM4.99548 13.7528L3.25875 13.7456C2.65351 13.7431 2.16267 13.2546 2.15727 12.6494L2.15327 12.2008L1.96591 12.1909L1.79813 15.9965L2.02678 16.0082L2.03223 15.795C2.04787 15.1827 2.55811 14.6997 3.17034 14.7176L4.97018 14.7704C4.96487 14.431 4.97332 14.0915 4.99548 13.7528ZM2.00939 16.6889C2.00938 16.6892 2.0094 16.6886 2.00939 16.6889V16.6889ZM2.70584 16.043C2.70553 16.043 2.70615 16.043 2.70584 16.043V16.043ZM3.11851 16.4866C3.11821 16.4866 3.11881 16.4866 3.11851 16.4866V16.4866ZM8.06783 22.8114L6.79692 24.019C6.35408 24.4398 5.65398 24.4219 5.2332 23.9791L5.08927 23.8276L4.94223 23.9673L7.44713 26.6036L7.59416 26.4639L7.45023 26.3124C7.02946 25.8695 7.04734 25.1694 7.49019 24.7486L8.76109 23.541C8.64128 23.4246 8.5233 23.3052 8.40724 23.1831C8.29117 23.0609 8.17803 22.937 8.06783 22.8114ZM16.7294 27.0514L16.6989 28.7599C16.6886 29.3351 16.239 29.8064 15.6649 29.8439L15.0099 29.8866L15.0171 30.1533L18.9796 30.2189L18.9733 29.9864L18.605 29.9633C18.002 29.9255 17.5409 29.4109 17.5693 28.8074L17.6508 27.072C17.3435 27.0764 17.0362 27.0695 16.7294 27.0514ZM18.9983 30.9118C18.9983 30.9114 18.9983 30.911 18.9983 30.9105L18.9983 30.9118ZM15.0343 30.7885C15.0343 30.7881 15.0343 30.7888 15.0343 30.7885V30.7885Z" fill="#333333"/>
</svg>
