<svg width="274" height="208" viewBox="0 0 274 208" fill="none" xmlns="http://www.w3.org/2000/svg">
<g opacity="0.2">
<g clip-path="url(#clip0_2717_7534)">
<path d="M105.281 116.126C105.566 115.238 106.51 114.752 107.399 115.037L112.745 116.75C113.633 117.035 114.119 117.979 113.834 118.868C113.549 119.757 112.605 120.242 111.717 119.957L110.648 119.615L109.928 121.86C111.889 122.798 113.508 124.208 114.697 125.901L116.795 124.827L116.284 123.824C115.857 122.994 116.183 121.978 117.01 121.558C117.837 121.138 118.855 121.457 119.275 122.284L121.845 127.279C122.271 128.108 121.946 129.124 121.119 129.544C120.291 129.964 119.273 129.645 118.853 128.818L118.334 127.819L116.234 128.899C116.926 130.853 117.124 132.994 116.749 135.129L119.001 135.851L119.344 134.781C119.629 133.893 120.573 133.407 121.462 133.692C122.35 133.977 122.836 134.921 122.551 135.81L120.838 141.155C120.553 142.044 119.609 142.53 118.72 142.245C117.831 141.96 117.346 141.016 117.63 140.127L117.973 139.058L115.728 138.338C114.79 140.3 113.379 141.918 111.687 143.107L112.761 145.205L113.758 144.692C114.587 144.265 115.603 144.591 116.023 145.418C116.443 146.245 116.124 147.263 115.297 147.683L110.302 150.253C109.473 150.68 108.457 150.354 108.037 149.527C107.617 148.7 107.936 147.682 108.763 147.262L109.769 146.744L108.689 144.644C106.735 145.337 104.594 145.535 102.459 145.16L101.737 147.412L102.806 147.754C103.695 148.039 104.181 148.983 103.896 149.872C103.611 150.761 102.667 151.247 101.778 150.962L96.4327 149.248C95.544 148.963 95.0583 148.019 95.3431 147.13C95.628 146.242 96.5721 145.756 97.4608 146.041L98.53 146.384L99.2496 144.138C97.2882 143.2 95.6698 141.79 94.4808 140.097L92.3828 141.171L92.8959 142.168C93.3226 142.997 92.9971 144.013 92.1698 144.433C91.3425 144.853 90.3247 144.534 89.9046 143.707L87.3328 138.719C86.906 137.89 87.2316 136.874 88.0589 136.454C88.8862 136.034 89.904 136.353 90.3241 137.18L90.8438 138.18L92.9438 137.099C92.2511 135.145 92.0445 133.009 92.4214 130.867L90.1762 130.148L89.8335 131.217C89.5487 132.105 88.6045 132.591 87.7158 132.306C86.8271 132.022 86.3413 131.077 86.6262 130.189L88.3397 124.843C88.6246 123.954 89.5687 123.469 90.4574 123.754C91.3461 124.038 91.8319 124.983 91.5471 125.871L91.2044 126.94L93.4495 127.66C94.3877 125.699 95.7981 124.08 97.4908 122.891L96.4169 120.793L95.4132 121.304C94.5837 121.731 93.5681 121.405 93.148 120.578C92.7279 119.751 93.0468 118.733 93.8741 118.313L98.8684 115.743C99.6978 115.316 100.713 115.642 101.134 116.469C101.554 117.297 101.235 118.314 100.407 118.734L99.4082 119.254L100.489 121.354C102.442 120.662 104.584 120.464 106.718 120.838L107.44 118.587L106.371 118.244C105.482 117.959 104.997 117.015 105.281 116.126Z" fill="white"/>
</g>
</g>
<g opacity="0.2">
<g clip-path="url(#clip1_2717_7534)">
<path d="M244.268 172.059C244.036 171.194 244.546 170.312 245.411 170.08L250.613 168.686C251.478 168.455 252.36 168.964 252.592 169.829C252.823 170.694 252.314 171.576 251.449 171.808L250.409 172.086L250.994 174.271C253.064 174.009 255.102 174.307 256.94 175.055L258.075 173.099L257.141 172.554C256.366 172.107 256.101 171.119 256.55 170.35C257 169.582 257.986 169.31 258.755 169.759L263.422 172.454C264.197 172.901 264.461 173.89 264.012 174.658C263.563 175.427 262.576 175.698 261.808 175.249L260.87 174.713L259.737 176.675C261.31 177.891 262.582 179.516 263.388 181.432L265.579 180.845L265.301 179.805C265.069 178.94 265.578 178.058 266.443 177.826C267.308 177.594 268.19 178.104 268.422 178.968L269.816 184.171C270.048 185.035 269.538 185.918 268.673 186.149C267.808 186.381 266.926 185.872 266.695 185.007L266.416 183.966L264.231 184.552C264.493 186.621 264.195 188.659 263.447 190.498L265.403 191.632L265.941 190.701C266.389 189.926 267.377 189.661 268.146 190.11C268.914 190.559 269.185 191.546 268.736 192.314L266.042 196.981C265.594 197.756 264.606 198.021 263.838 197.572C263.069 197.123 262.798 196.136 263.247 195.367L263.79 194.427L261.827 193.295C260.611 194.868 258.986 196.14 257.07 196.946L257.657 199.137L258.697 198.858C259.562 198.627 260.444 199.136 260.676 200.001C260.908 200.866 260.399 201.748 259.534 201.98L254.332 203.374C253.467 203.605 252.585 203.096 252.353 202.231C252.121 201.366 252.63 200.484 253.495 200.252L254.536 199.974L253.95 197.789C251.881 198.051 249.843 197.753 248.004 197.005L246.87 198.961L247.801 199.499C248.576 199.946 248.841 200.935 248.392 201.703C247.943 202.472 246.956 202.743 246.188 202.294L241.523 199.606C240.748 199.159 240.483 198.17 240.932 197.402C241.381 196.633 242.368 196.362 243.137 196.811L244.075 197.347L245.208 195.385C243.634 194.169 242.358 192.552 241.55 190.629L239.365 191.215L239.644 192.255C239.875 193.12 239.366 194.002 238.501 194.234C237.636 194.466 236.754 193.956 236.522 193.091L235.129 187.889C234.897 187.025 235.406 186.142 236.271 185.911C237.136 185.679 238.018 186.188 238.25 187.053L238.529 188.093L240.713 187.508C240.452 185.439 240.749 183.4 241.497 181.562L239.541 180.428L238.997 181.361C238.549 182.136 237.561 182.401 236.792 181.952C236.024 181.502 235.752 180.516 236.202 179.747L238.896 175.081C239.343 174.306 240.332 174.041 241.1 174.49C241.869 174.939 242.14 175.926 241.691 176.694L241.155 177.633L243.117 178.765C244.333 177.192 245.958 175.92 247.875 175.114L247.287 172.923L246.247 173.201C245.382 173.433 244.5 172.924 244.268 172.059Z" fill="white"/>
</g>
</g>
<g opacity="0.3">
<g clip-path="url(#clip2_2717_7534)">
<path d="M254.198 38.5845C254.079 38.1408 254.341 37.6882 254.784 37.5693L257.453 36.8543C257.897 36.7354 258.349 36.9967 258.468 37.4404C258.587 37.884 258.326 38.3366 257.882 38.4555L257.348 38.5985L257.649 39.7193C258.71 39.585 259.756 39.7375 260.699 40.1212L261.281 39.1179L260.802 38.8386C260.404 38.6091 260.269 38.102 260.499 37.7078C260.729 37.3135 261.236 37.1743 261.63 37.4048L264.024 38.7869C264.421 39.0165 264.557 39.5235 264.327 39.9177C264.096 40.312 263.59 40.4512 263.196 40.2208L262.715 39.9457L262.134 40.9524C262.941 41.5763 263.593 42.4097 264.007 43.3929L265.131 43.0917L264.988 42.558C264.869 42.1143 265.13 41.6617 265.574 41.5429C266.018 41.424 266.47 41.6853 266.589 42.1289L267.304 44.7976C267.423 45.2412 267.162 45.6938 266.718 45.8127C266.274 45.9316 265.822 45.6703 265.703 45.2266L265.56 44.6929L264.439 44.9932C264.573 46.0548 264.421 47.1003 264.037 48.0433L265.04 48.6254L265.316 48.1475C265.546 47.7499 266.053 47.614 266.447 47.8445C266.841 48.0749 266.981 48.5811 266.75 48.9753L265.368 51.3693C265.139 51.7669 264.632 51.9027 264.237 51.6723C263.843 51.4418 263.704 50.9357 263.934 50.5414L264.213 50.0593L263.206 49.4781C262.582 50.2852 261.749 50.9376 260.765 51.3512L261.067 52.4754L261.6 52.3323C262.044 52.2135 262.497 52.4748 262.615 52.9184C262.734 53.3621 262.473 53.8146 262.029 53.9335L259.361 54.6486C258.917 54.7675 258.465 54.5062 258.346 54.0625C258.227 53.6189 258.488 53.1663 258.932 53.0474L259.465 52.9044L259.165 51.7836C258.104 51.9179 257.058 51.7654 256.115 51.3817L255.533 52.385L256.011 52.6609C256.408 52.8905 256.544 53.3975 256.314 53.7918C256.083 54.186 255.577 54.3252 255.183 54.0948L252.79 52.716C252.392 52.4864 252.257 51.9794 252.487 51.5851C252.717 51.1909 253.224 51.0517 253.618 51.2821L254.099 51.5572L254.68 50.5505C253.873 49.9266 253.218 49.0974 252.804 48.1109L251.683 48.4112L251.826 48.9449C251.945 49.3886 251.684 49.8411 251.24 49.96C250.796 50.0789 250.344 49.8176 250.225 49.3739L249.51 46.7053C249.391 46.2616 249.652 45.8091 250.096 45.6902C250.539 45.5713 250.992 45.8326 251.111 46.2763L251.254 46.81L252.375 46.5097C252.24 45.448 252.393 44.4025 252.777 43.4595L251.773 42.8774L251.494 43.3563C251.265 43.7539 250.757 43.8897 250.363 43.6593C249.969 43.4288 249.83 42.9227 250.06 42.5285L251.442 40.1345C251.672 39.7369 252.179 39.6011 252.573 39.8315C252.967 40.0619 253.107 40.5681 252.876 40.9623L252.601 41.4436L253.608 42.0248C254.232 41.2176 255.065 40.5653 256.048 40.1517L255.747 39.0275L255.213 39.1705C254.77 39.2894 254.317 39.0281 254.198 38.5845Z" fill="white"/>
</g>
</g>
<g opacity="0.1">
<g clip-path="url(#clip3_2717_7534)">
<path d="M91.3298 11.2652L90.3776 10.9599L90.0723 11.9122L89.1171 14.8922L88.8508 15.7231L89.6379 16.0996C92.0811 17.2683 94.098 19.0253 95.5809 21.1364L96.0807 21.848L96.8548 21.4518L99.6394 20.0264L100.528 19.5718L100.075 18.6827L99.3969 17.3503L99.3949 17.3464C99.0797 16.7339 99.3229 15.9932 99.9222 15.6889C100.54 15.3751 101.283 15.6205 101.584 16.2138L101.587 16.2186L104.998 22.8476C105.313 23.4601 105.07 24.2008 104.47 24.5051C103.852 24.8189 103.109 24.5735 102.808 23.9802L102.808 23.9802L102.804 23.9715L102.114 22.6452L101.654 21.7619L100.769 22.2174L97.9817 23.6516L97.2046 24.0514L97.4967 24.875C98.3592 27.3077 98.6061 29.9753 98.1388 32.6366L97.988 33.4956L98.8185 33.7618L101.807 34.7199L102.76 35.0252L103.065 34.0729L103.52 32.6538C103.729 32.0002 104.42 31.6451 105.073 31.8546C105.727 32.0641 106.082 32.7543 105.872 33.408L103.598 40.5032C103.389 41.1569 102.698 41.512 102.045 41.3025C101.391 41.0929 101.036 40.4028 101.245 39.7491L101.7 38.33L102.006 37.3778L101.053 37.0725L98.0733 36.1173L97.2424 35.851L96.8659 36.6381C95.6972 39.0813 93.9402 41.0982 91.8291 42.5811L91.1175 43.0809L91.5137 43.855L92.9391 46.6396L93.3957 47.5317L94.2868 47.0732L95.6102 46.3922C96.2227 46.0771 96.9634 46.3203 97.2677 46.9196C97.5816 47.5377 97.3361 48.2805 96.7428 48.5818L96.738 48.5842L90.109 51.995C89.4965 52.3101 88.7559 52.067 88.4516 51.4677C88.1377 50.8496 88.3832 50.1067 88.9764 49.8055L88.9812 49.803L90.3164 49.116L91.2056 48.6585L90.7481 47.7693L89.3138 44.9819L88.914 44.2048L88.0904 44.4969C85.6578 45.3594 82.9902 45.6063 80.3289 45.139L79.4699 44.9882L79.2037 45.8187L78.2456 48.8076L77.9403 49.7599L78.8926 50.0651L80.3117 50.52C80.9653 50.7295 81.3204 51.4197 81.1109 52.0734C80.9014 52.727 80.2112 53.0821 79.5575 52.8726L72.4623 50.5982C71.8086 50.3887 71.4535 49.6985 71.663 49.0449C71.8726 48.3912 72.5627 48.0361 73.2164 48.2456L74.6354 48.7005L75.5877 49.0057L75.893 48.0535L76.8482 45.0735L77.1145 44.2426L76.3274 43.8661C73.8841 42.6974 71.8673 40.9404 70.3844 38.8293L69.8846 38.1177L69.1105 38.5139L66.3259 39.9393L65.4338 40.3959L65.8923 41.287L66.5733 42.6104C66.8884 43.2229 66.6452 43.9636 66.0459 44.2679C65.4278 44.5818 64.685 44.3363 64.3837 43.743L64.3809 43.7375L60.9676 37.1181C60.6525 36.5056 60.8957 35.7649 61.495 35.4606C62.1131 35.1468 62.8559 35.3922 63.1572 35.9855L63.1572 35.9855L63.1617 35.9942L63.8515 37.3205L64.3109 38.2038L65.1962 37.7483L67.9836 36.314L68.7607 35.9142L68.4686 35.0906C67.6051 32.6554 67.348 29.9939 67.8175 27.3266L67.9688 26.4674L67.1379 26.201L64.1579 25.2458L63.2056 24.9405L62.9004 25.8928L62.4455 27.3119C62.236 27.9655 61.5458 28.3206 60.8921 28.1111C60.2385 27.9016 59.8833 27.2114 60.0929 26.5577L62.3673 19.4625C62.5768 18.8088 63.267 18.4537 63.9206 18.6632C64.5743 18.8728 64.9294 19.5629 64.7199 20.2166L64.265 21.6356L63.9597 22.5879L64.912 22.8932L67.892 23.8484L68.7229 24.1147L69.0994 23.3276C70.2681 20.8843 72.0251 18.8675 74.1362 17.3846L74.8478 16.8848L74.4516 16.1107L73.0262 13.3261L72.5716 12.4379L71.6825 12.8905L70.3501 13.5686L70.3501 13.5686L70.3462 13.5706C69.7337 13.8857 68.993 13.6426 68.6887 13.0433C68.3749 12.4252 68.6203 11.6823 69.2136 11.3811L69.2184 11.3786L75.8474 7.96785C76.4599 7.65271 77.2006 7.89588 77.5049 8.49516C77.8187 9.11328 77.5733 9.85614 76.98 10.1574L76.98 10.1574L76.9713 10.1619L75.645 10.8517L74.7617 11.3111L75.2172 12.1964L76.6514 14.9838L77.0512 15.7609L77.8748 15.4688C80.3075 14.6063 82.9751 14.3594 85.6364 14.8267L86.4954 14.9775L86.7616 14.147L87.7197 11.1581L88.025 10.2058L87.0727 9.90057L85.6536 9.44569C85 9.23616 84.6449 8.54599 84.8544 7.89232C85.0639 7.23866 85.7541 6.88355 86.4078 7.09308L93.503 9.36745C94.1567 9.57698 94.5118 10.2672 94.3023 10.9208C94.0927 11.5745 93.4026 11.9296 92.7489 11.7201L91.3298 11.2652Z" stroke="white" stroke-width="2"/>
</g>
</g>
<g opacity="0.1">
<g clip-path="url(#clip4_2717_7534)">
<path d="M198.805 92.0636L197.853 91.7584L197.548 92.7107L196.918 94.6754L196.652 95.5062L197.439 95.8827C198.995 96.6272 200.28 97.7464 201.225 99.092L201.725 99.8036L202.499 99.4073L204.335 98.4676L205.223 98.013L204.771 97.1239L204.324 96.2454L204.322 96.2415C204.199 96.0041 204.295 95.7228 204.52 95.6084C204.764 95.4845 205.047 95.5858 205.158 95.805L205.161 95.8097L207.41 100.18C207.532 100.418 207.436 100.699 207.211 100.813C206.967 100.937 206.684 100.836 206.573 100.617L206.573 100.617L206.568 100.608L206.113 99.7337L205.654 98.8504L204.769 99.3059L202.931 100.251L202.154 100.651L202.446 101.475C202.995 103.024 203.153 104.723 202.855 106.419L202.704 107.278L203.535 107.545L205.505 108.176L206.457 108.481L206.763 107.529L207.063 106.594C207.143 106.342 207.406 106.206 207.658 106.287C207.91 106.368 208.045 106.631 207.965 106.883L206.465 111.561C206.385 111.812 206.121 111.948 205.87 111.867C205.618 111.786 205.482 111.523 205.563 111.271L205.863 110.336L206.168 109.384L205.216 109.078L203.251 108.449L202.42 108.182L202.044 108.969C201.299 110.526 200.18 111.811 198.835 112.756L198.123 113.256L198.519 114.03L199.459 115.866L199.916 116.758L200.807 116.299L201.679 115.85C201.917 115.728 202.198 115.824 202.312 116.049C202.436 116.293 202.335 116.576 202.116 116.687L202.111 116.69L197.741 118.938C197.503 119.06 197.222 118.964 197.107 118.739C196.984 118.495 197.085 118.213 197.304 118.101L197.309 118.099L198.189 117.646L199.078 117.189L198.621 116.299L197.675 114.462L197.275 113.685L196.452 113.977C194.903 114.526 193.203 114.683 191.507 114.385L190.648 114.235L190.382 115.065L189.75 117.036L189.445 117.988L190.397 118.293L191.333 118.593C191.585 118.674 191.72 118.937 191.64 119.189C191.559 119.441 191.296 119.576 191.044 119.495L186.366 117.996C186.114 117.915 185.979 117.652 186.059 117.4C186.14 117.148 186.403 117.013 186.655 117.094L187.591 117.394L188.543 117.699L188.848 116.747L189.478 114.782L189.744 113.951L188.957 113.574C187.401 112.83 186.116 111.711 185.171 110.365L184.671 109.654L183.897 110.05L182.061 110.99L181.169 111.446L181.627 112.337L182.076 113.21C182.199 113.447 182.103 113.729 181.877 113.843C181.633 113.967 181.351 113.866 181.24 113.646L181.24 113.646L181.237 113.641L178.986 109.277C178.986 109.277 178.986 109.277 178.986 109.276C178.864 109.039 178.96 108.758 179.185 108.644C179.429 108.52 179.712 108.621 179.823 108.84L179.823 108.84L179.828 108.849L180.283 109.724L180.742 110.607L181.627 110.151L183.465 109.206L184.242 108.806L183.95 107.982C183.4 106.431 183.236 104.735 183.535 103.036L183.686 102.177L182.856 101.911L180.891 101.281L179.939 100.976L179.633 101.928L179.333 102.864C179.253 103.115 178.99 103.251 178.738 103.17C178.486 103.089 178.351 102.826 178.431 102.574L179.931 97.8965C180.011 97.6447 180.275 97.5093 180.526 97.59C180.778 97.6707 180.914 97.9339 180.833 98.1857L180.533 99.1213L180.228 100.074L181.18 100.379L183.145 101.009L183.976 101.275L184.352 100.488C185.097 98.9315 186.216 97.6466 187.561 96.7014L188.273 96.2016L187.877 95.4275L186.937 93.5916L186.482 92.7034L185.593 93.156L184.715 93.6031L184.715 93.6031L184.711 93.6051C184.474 93.7272 184.192 93.6313 184.078 93.4061C183.954 93.1621 184.055 92.8795 184.274 92.7682L184.279 92.7658L188.65 90.5171C188.887 90.3949 189.168 90.4909 189.283 90.716C189.407 90.96 189.305 91.2426 189.086 91.3539L189.086 91.3539L189.078 91.3584L188.203 91.8132L187.32 92.2726L187.775 93.1579L188.721 94.9956L189.121 95.7727L189.944 95.4806C191.493 94.9313 193.193 94.7739 194.889 95.0717L195.748 95.2225L196.014 94.392L196.646 92.4215L196.951 91.4692L195.999 91.1639L195.063 90.864C194.811 90.7833 194.676 90.5201 194.756 90.2683C194.837 90.0166 195.1 89.8811 195.352 89.9618L200.03 91.4613C200.282 91.542 200.417 91.8052 200.337 92.057C200.256 92.3088 199.993 92.4442 199.741 92.3635L198.805 92.0636Z" stroke="white" stroke-width="2"/>
</g>
</g>
<g opacity="0.3">
<g clip-path="url(#clip5_2717_7534)">
<path d="M19.6061 178.162L18.6538 177.857L18.3486 178.809L17.8705 180.3L17.6042 181.131L18.3913 181.508C19.5341 182.054 20.4778 182.876 21.1723 183.865L21.6721 184.577L22.4462 184.18L23.8398 183.467L24.7279 183.012L24.2754 182.123L23.936 181.456L23.934 181.453C23.9018 181.39 23.9291 181.323 23.9799 181.297C24.0494 181.262 24.1174 181.296 24.1401 181.34L24.1426 181.345L25.8495 184.663C25.8817 184.725 25.8544 184.792 25.8036 184.818C25.7341 184.854 25.6661 184.82 25.6434 184.775L25.6434 184.775L25.6389 184.766L25.2937 184.102L24.8343 183.219L23.949 183.675L22.554 184.392L21.777 184.792L22.069 185.616C22.4722 186.753 22.5879 188.001 22.3692 189.247L22.2184 190.106L23.0489 190.372L24.5447 190.851L25.4969 191.157L25.8022 190.204L26.0298 189.494C26.0505 189.43 26.1146 189.397 26.179 189.417C26.2434 189.438 26.2764 189.502 26.2558 189.567L25.1176 193.118C25.0969 193.182 25.0328 193.215 24.9684 193.194C24.904 193.174 24.871 193.109 24.8916 193.045L25.1192 192.335L25.4245 191.383L24.4722 191.077L22.9809 190.599L22.15 190.333L21.7735 191.12C21.2269 192.263 20.405 193.207 19.4163 193.901L18.7047 194.401L19.101 195.175L19.8143 196.569L20.2709 197.461L21.162 197.002L21.8243 196.661C21.8868 196.629 21.954 196.657 21.9798 196.707C22.0151 196.777 21.9811 196.845 21.9364 196.868L21.9316 196.87L18.6141 198.577C18.5516 198.609 18.4843 198.582 18.4586 198.531C18.4232 198.461 18.4573 198.393 18.502 198.371L18.5068 198.368L19.175 198.025L20.0642 197.567L19.6066 196.678L18.8889 195.283L18.4891 194.506L17.6655 194.798C16.5283 195.201 15.2805 195.317 14.0345 195.098L13.1755 194.947L12.9093 195.778L12.4298 197.273L12.1246 198.226L13.0769 198.531L13.787 198.759C13.8514 198.779 13.8844 198.843 13.8638 198.908C13.8431 198.972 13.779 199.005 13.7146 198.985L10.1637 197.846C10.0993 197.826 10.0663 197.762 10.087 197.697C10.1076 197.633 10.1718 197.6 10.2362 197.62L10.9463 197.848L11.8986 198.153L12.2039 197.201L12.6819 195.71L12.9482 194.879L12.1612 194.502C11.0184 193.956 10.0747 193.134 9.38017 192.145L8.88033 191.434L8.10623 191.83L6.71265 192.543L5.82061 193L6.27909 193.891L6.61988 194.553C6.65204 194.616 6.62475 194.683 6.574 194.709C6.50444 194.744 6.43644 194.71 6.41372 194.665L6.41374 194.665L6.41088 194.66L4.70292 191.347C4.70286 191.347 4.7028 191.347 4.70274 191.347C4.67086 191.285 4.69815 191.218 4.7488 191.192C4.81836 191.156 4.88636 191.191 4.90908 191.235L4.90904 191.235L4.91354 191.244L5.25876 191.908L5.71816 192.791L6.60345 192.335L7.99845 191.618L8.77547 191.218L8.48344 190.394C8.07929 189.254 7.95917 188.01 8.17875 186.762L8.33 185.903L7.49914 185.637L6.00778 185.159L5.05551 184.853L4.75026 185.806L4.52262 186.516C4.50197 186.58 4.43782 186.613 4.37342 186.593C4.30901 186.572 4.276 186.508 4.29665 186.443L5.43487 182.893C5.45551 182.828 5.51966 182.795 5.58407 182.816C5.64847 182.836 5.68148 182.901 5.66083 182.965L5.43319 183.675L5.12794 184.627L6.08021 184.933L7.57157 185.411L8.40244 185.677L8.77893 184.89C9.32556 183.747 10.1474 182.803 11.1361 182.109L11.8477 181.609L11.4515 180.835L10.7382 179.441L10.2836 178.553L9.3944 179.006L8.72763 179.345L8.72763 179.345L8.72371 179.347C8.6612 179.379 8.59395 179.352 8.56819 179.301C8.53286 179.232 8.56689 179.164 8.61163 179.141L8.61639 179.139L11.9339 177.432C11.9964 177.4 12.0637 177.427 12.0894 177.478C12.1248 177.547 12.0907 177.615 12.046 177.638L12.046 177.638L12.0373 177.642L11.3736 177.988L10.4903 178.447L10.9458 179.332L11.6635 180.727L12.0633 181.504L12.8869 181.212C14.0242 180.809 15.272 180.693 16.5179 180.912L17.3769 181.063L17.6431 180.232L18.1226 178.737L18.4279 177.784L17.4756 177.479L16.7654 177.251C16.701 177.231 16.668 177.167 16.6886 177.102C16.7093 177.038 16.7734 177.005 16.8378 177.025L20.3887 178.164C20.4531 178.184 20.4861 178.248 20.4655 178.313C20.4448 178.377 20.3807 178.41 20.3163 178.39L19.6061 178.162Z" stroke="white" stroke-width="2"/>
</g>
</g>
<defs>
<clipPath id="clip0_2717_7534">
<rect x="92.9662" y="110.41" width="35.9262" height="35.9262" rx="8" transform="rotate(17.7731 92.9662 110.41)" fill="white"/>
</clipPath>
<clipPath id="clip1_2717_7534">
<rect x="231.365" y="173.844" width="34.4679" height="34.4679" rx="8" transform="rotate(-15 231.365 173.844)" fill="white"/>
</clipPath>
<clipPath id="clip2_2717_7534">
<rect x="247.579" y="39.5" width="17.6817" height="17.6817" rx="8" transform="rotate(-15 247.579 39.5)" fill="white"/>
</clipPath>
<clipPath id="clip3_2717_7534">
<rect x="67.5558" width="47.6856" height="47.6856" rx="8" transform="rotate(17.7731 67.5558 0)" fill="white"/>
</clipPath>
<clipPath id="clip4_2717_7534">
<rect x="183.027" y="84.9609" width="31.4391" height="31.4391" rx="8" transform="rotate(17.7731 183.027 84.9609)" fill="white"/>
</clipPath>
<clipPath id="clip5_2717_7534">
<rect x="7.55579" y="173" width="23.8645" height="23.8645" rx="8" transform="rotate(17.7731 7.55579 173)" fill="white"/>
</clipPath>
</defs>
</svg>
